<svg width="356" height="184" viewBox="0 0 356 184" fill="none" xmlns="http://www.w3.org/2000/svg">
<path d="M159.783 120.159V115.682C159.783 110.418 159.669 104.231 159.441 97.1221C159.396 95.9144 156.901 95.1055 151.956 94.6953C151.637 93.8978 151.478 93.1686 151.478 92.5078C151.478 92.0977 151.637 91.4027 151.956 90.4229C155.42 90.5596 158.895 90.6279 162.381 90.6279C165.89 90.6279 169.49 90.5596 173.182 90.4229C173.501 91.4027 173.66 92.0977 173.66 92.5078C173.66 93.1686 173.501 93.8978 173.182 94.6953C168.465 95.151 166.084 95.96 166.038 97.1221C165.742 101.93 165.594 108.96 165.594 118.211C165.594 128.647 165.742 137.09 166.038 143.538L163.235 143.606L130.799 103.924C130.799 104.334 130.787 105.086 130.765 106.18C130.742 107.251 130.73 108.082 130.73 108.675C130.73 119.681 130.879 129.057 131.175 136.805C131.22 138.035 133.715 138.855 138.66 139.266C138.979 140.063 139.139 140.792 139.139 141.453C139.139 141.954 138.979 142.695 138.66 143.675C135.151 143.538 131.676 143.47 128.235 143.47C124.726 143.47 121.126 143.538 117.435 143.675C117.116 142.695 116.956 141.954 116.956 141.453C116.956 140.792 117.116 140.063 117.435 139.266C122.151 138.81 124.533 137.99 124.578 136.805C124.852 132.02 124.988 125.001 124.988 115.75C124.988 108.663 124.897 102.34 124.715 96.7803C123.234 95.6182 120.978 94.9232 117.947 94.6953C117.605 94.0801 117.435 93.3737 117.435 92.5762C117.435 91.7331 117.651 90.9697 118.084 90.2861C122.846 90.514 128.862 90.6279 136.131 90.6279L159.783 120.159ZM164.192 118.211C164.192 111.307 164.34 104.277 164.637 97.1221C164.728 95.0713 167.246 93.818 172.19 93.3623C172.373 92.9749 172.373 92.4395 172.19 91.7559C167.884 91.8926 164.83 91.9609 163.03 91.9609C160.182 91.9609 156.935 91.8926 153.289 91.7559C153.107 92.4395 153.107 92.9749 153.289 93.3623C158.279 93.818 160.797 95.0713 160.843 97.1221C161.071 104.231 161.185 110.418 161.185 115.682C161.185 118.758 161.139 122.905 161.048 128.123L131.585 92.0293C126.458 92.0293 122.208 91.9382 118.836 91.7559C118.654 92.3027 118.654 92.8382 118.836 93.3623C121.775 93.5446 124.202 94.4788 126.116 96.165C126.299 101.702 126.39 108.23 126.39 115.75C126.39 122.654 126.253 129.673 125.979 136.805C125.888 138.878 123.37 140.143 118.426 140.599C118.243 140.963 118.243 141.499 118.426 142.205C122.71 142.068 125.763 142 127.586 142C130.434 142 133.681 142.068 137.327 142.205C137.509 141.499 137.509 140.963 137.327 140.599C132.337 140.143 129.819 138.878 129.773 136.805C129.546 129.718 129.432 123.543 129.432 118.279C129.432 112.264 129.5 106.305 129.637 100.403H129.979L163.919 142.205L164.568 142.137C164.318 136.782 164.192 128.807 164.192 118.211ZM197.005 113.152C199.352 113.152 201.209 114.28 202.576 116.536C203.966 118.769 204.661 122.244 204.661 126.961C204.661 131.678 203.966 135.153 202.576 137.386C201.209 139.619 199.352 140.735 197.005 140.735C195.706 140.735 194.521 140.462 193.45 139.915C192.402 139.368 191.502 138.525 190.75 137.386C190.021 136.246 189.451 134.822 189.041 133.113C188.631 131.382 188.426 129.331 188.426 126.961C188.426 124.614 188.631 122.575 189.041 120.843C189.451 119.088 190.021 117.653 190.75 116.536C191.502 115.397 192.402 114.554 193.45 114.007C194.521 113.437 195.706 113.152 197.005 113.152ZM197.005 142.991C199.124 142.991 201.027 142.592 202.713 141.795C204.399 140.997 205.835 139.892 207.02 138.479C208.227 137.044 209.15 135.346 209.788 133.387C210.426 131.427 210.745 129.285 210.745 126.961C210.745 124.637 210.426 122.495 209.788 120.535C209.15 118.576 208.227 116.889 207.02 115.477C205.835 114.041 204.399 112.924 202.713 112.127C201.027 111.329 199.124 110.931 197.005 110.931C194.749 110.931 192.71 111.329 190.887 112.127C189.064 112.924 187.514 114.03 186.238 115.442C184.985 116.855 184.017 118.553 183.333 120.535C182.649 122.495 182.308 124.637 182.308 126.961C182.308 129.308 182.649 131.461 183.333 133.421C184.017 135.381 184.985 137.078 186.238 138.514C187.514 139.926 189.064 141.032 190.887 141.829C192.71 142.604 194.749 142.991 197.005 142.991ZM198.201 109.529C200.958 109.529 203.408 109.951 205.55 110.794C207.715 111.637 209.537 112.833 211.019 114.383C212.5 115.91 213.628 117.744 214.402 119.886C215.177 122.028 215.564 124.386 215.564 126.961C215.564 129.513 215.177 131.86 214.402 134.002C213.628 136.144 212.5 137.99 211.019 139.539C209.56 141.066 207.749 142.251 205.584 143.094C203.419 143.96 200.958 144.393 198.201 144.393C195.467 144.393 193.017 143.96 190.853 143.094C188.711 142.251 186.899 141.066 185.418 139.539C183.96 137.99 182.843 136.155 182.068 134.036C181.294 131.894 180.906 129.536 180.906 126.961C180.906 124.386 181.294 122.028 182.068 119.886C182.843 117.744 183.971 115.91 185.452 114.383C186.933 112.833 188.745 111.637 190.887 110.794C193.029 109.951 195.467 109.529 198.201 109.529ZM193.245 126.961C193.245 134.321 194.897 138.4 198.201 139.197C201.574 138.4 203.26 134.321 203.26 126.961C203.26 119.669 201.574 115.579 198.201 114.69C194.897 115.579 193.245 119.669 193.245 126.961ZM232.859 115.066H246.292C246.611 114.178 246.611 113.357 246.292 112.605H232.859V105.12C232.29 104.869 231.72 104.869 231.15 105.12C230.307 106.692 229.373 108.071 228.348 109.256C227.322 110.418 226.456 111.238 225.75 111.717C225.066 112.173 224.075 112.765 222.776 113.494C222.617 113.973 222.617 114.497 222.776 115.066H226.946V132.977C226.946 139.653 229.703 142.991 235.218 142.991C237.565 142.991 239.729 142.387 241.712 141.18C243.694 139.949 245.175 138.445 246.155 136.668C245.95 136.167 245.574 135.893 245.027 135.848C242.885 137.762 240.812 138.719 238.807 138.719C234.842 138.719 232.859 136.919 232.859 133.318V115.066ZM244.617 134.378C246.053 134.56 247.078 135.346 247.693 136.736C246.508 138.901 244.788 140.713 242.532 142.171C240.276 143.652 237.838 144.393 235.218 144.393C228.792 144.393 225.579 140.587 225.579 132.977V116.434H221.375C221.033 115.226 221.033 113.973 221.375 112.674C222.765 111.876 223.825 111.227 224.554 110.726C225.283 110.201 226.194 109.358 227.288 108.196C228.382 107.034 229.35 105.633 230.193 103.992C232.335 103.104 234.83 103.149 237.679 104.129V111.204H247.625C248.354 112.89 248.354 114.633 247.625 116.434H237.679V133.318C237.679 135.506 238.465 136.793 240.037 137.181C241.404 136.884 242.931 135.95 244.617 134.378ZM269.192 113.152C271.015 113.152 272.337 113.745 273.157 114.93C273.978 116.092 274.388 117.55 274.388 119.305C274.388 119.965 274.274 120.717 274.046 121.561H260.716C261.422 118.712 262.562 116.604 264.134 115.237C265.729 113.847 267.415 113.152 269.192 113.152ZM260.374 123.885H279.002C279.367 122.745 279.549 121.572 279.549 120.364C279.549 117.698 278.785 115.465 277.259 113.665C275.755 111.842 273.351 110.931 270.047 110.931C265.74 110.931 262.117 112.492 259.178 115.613C256.238 118.735 254.769 122.7 254.769 127.508C254.769 132.635 256.17 136.497 258.973 139.095C261.775 141.692 265.068 142.991 268.851 142.991C271.653 142.991 274.251 142.239 276.644 140.735C279.059 139.209 280.825 136.919 281.941 133.865C281.622 133.501 281.178 133.25 280.608 133.113C280.517 133.25 280.244 133.626 279.788 134.241C279.355 134.834 279.036 135.267 278.831 135.54C278.626 135.791 278.25 136.167 277.703 136.668C277.179 137.146 276.666 137.5 276.165 137.728C275.687 137.955 275.071 138.183 274.319 138.411C273.567 138.616 272.747 138.719 271.858 138.719C268.349 138.719 265.558 137.682 263.484 135.608C261.411 133.512 260.328 130.698 260.237 127.166C260.237 126.368 260.283 125.275 260.374 123.885ZM280.062 131.507C281.497 131.826 282.659 132.544 283.548 133.66C282.249 137.215 280.244 139.892 277.532 141.692C274.821 143.493 271.927 144.393 268.851 144.393C264.658 144.393 261.023 142.98 257.947 140.154C254.894 137.329 253.367 133.113 253.367 127.508C253.367 122.426 254.928 118.165 258.05 114.725C261.194 111.261 265.638 109.529 271.38 109.529C280.062 109.529 284.402 113.141 284.402 120.364C284.402 121.777 284.072 123.418 283.411 125.286H265.057V127.508C265.171 130.265 265.923 132.509 267.312 134.241C268.702 135.95 270.617 136.953 273.055 137.249C274.49 137.112 275.675 136.622 276.609 135.779C277.544 134.936 278.694 133.512 280.062 131.507ZM272.986 119.305C272.986 116.798 272.143 115.283 270.457 114.759C268.452 115.374 266.959 117.174 265.979 120.159H272.918C272.918 120.068 272.929 119.931 272.952 119.749C272.975 119.567 272.986 119.419 272.986 119.305ZM296.365 142.41C295.271 142.775 294.201 143.219 293.152 143.743C292.081 143.082 291.375 142.41 291.033 141.727C291.079 141.59 291.147 141.123 291.238 140.325C291.329 139.528 291.421 138.593 291.512 137.522C291.626 136.451 291.717 135.346 291.785 134.207C291.854 133.068 291.888 132.099 291.888 131.302C292.959 130.8 294.611 130.55 296.844 130.55C297.094 130.55 297.345 130.55 297.596 130.55C297.846 130.55 298.108 130.561 298.382 130.584C300.022 135.916 302.267 138.81 305.115 139.266C306.277 139.083 307.166 138.662 307.781 138.001C308.419 137.317 308.738 136.554 308.738 135.711C308.738 135.096 308.567 134.526 308.226 134.002C307.884 133.455 307.428 132.954 306.858 132.498C306.289 132.042 305.617 131.621 304.842 131.233C304.09 130.846 303.292 130.47 302.449 130.105C301.606 129.718 300.752 129.354 299.886 129.012C299.02 128.647 298.188 128.271 297.391 127.884C296.548 127.496 295.75 127.029 294.998 126.482C294.246 125.913 293.585 125.275 293.016 124.568C292.446 123.839 291.99 123.042 291.648 122.176C291.329 121.31 291.17 120.376 291.17 119.373C291.17 118.302 291.352 117.186 291.717 116.023C292.081 114.861 292.708 113.802 293.597 112.845C294.485 111.888 295.682 111.102 297.186 110.486C298.689 109.848 300.581 109.529 302.859 109.529C305.389 109.529 307.257 109.666 308.465 109.939L309.729 109.529H312.054C312.35 111.466 312.703 113.278 313.113 114.964C313.546 116.65 314.025 118.222 314.549 119.681C313.569 120.66 312.384 121.15 310.994 121.15C310.219 120.239 309.502 119.419 308.841 118.689C308.18 117.938 307.542 117.288 306.927 116.741C306.334 116.194 305.742 115.75 305.149 115.408C304.58 115.066 303.987 114.827 303.372 114.69C301.868 114.941 301.116 115.625 301.116 116.741C301.116 117.63 301.504 118.405 302.278 119.065C303.053 119.726 304.021 120.33 305.184 120.877C306.346 121.424 307.61 121.948 308.978 122.449C310.368 122.928 311.678 123.44 312.908 123.987C313.797 124.375 314.629 124.876 315.403 125.491C316.201 126.106 316.896 126.824 317.488 127.645C318.081 128.442 318.548 129.342 318.89 130.345C319.231 131.325 319.402 132.384 319.402 133.523C319.402 135.21 318.969 136.725 318.104 138.069C317.26 139.414 316.132 140.553 314.72 141.487C313.33 142.422 311.735 143.139 309.935 143.641C308.134 144.142 306.3 144.393 304.432 144.393C301.219 144.393 298.53 143.732 296.365 142.41ZM304.192 142.991C307.041 142.991 309.479 142.148 311.507 140.462C313.535 138.776 314.549 136.884 314.549 134.788C314.549 132.737 313.922 130.971 312.669 129.49C311.416 127.986 309.9 126.824 308.123 126.004C306.346 125.184 304.557 124.432 302.757 123.748C300.957 123.042 299.43 122.221 298.177 121.287C296.924 120.353 296.297 119.259 296.297 118.006C296.297 116.411 296.889 115.203 298.074 114.383C299.259 113.562 300.649 113.152 302.244 113.152C303.93 113.152 305.434 113.676 306.756 114.725C308.077 115.773 309.695 117.448 311.609 119.749C312.225 119.749 312.669 119.601 312.942 119.305C312.099 116.889 310.846 114.896 309.183 113.323C307.542 111.728 305.434 110.931 302.859 110.931C299.191 110.931 296.559 111.808 294.964 113.562C293.369 115.294 292.571 117.231 292.571 119.373C292.571 121.196 293.175 122.757 294.383 124.056C295.613 125.332 297.083 126.323 298.792 127.029C300.524 127.713 302.244 128.396 303.953 129.08C305.662 129.764 307.12 130.652 308.328 131.746C309.536 132.84 310.14 134.161 310.14 135.711C310.14 137.01 309.581 138.172 308.465 139.197C307.348 140.223 305.787 140.735 303.782 140.735C301.367 140.735 299.498 139.972 298.177 138.445C296.878 136.896 295.784 134.743 294.896 131.985C294.098 131.985 293.562 132.054 293.289 132.19C293.289 133.831 293.209 135.711 293.05 137.83C292.89 139.949 292.731 141.202 292.571 141.59C292.731 141.818 292.947 142.023 293.221 142.205C294.155 141.544 294.873 140.849 295.374 140.12C297.379 141.237 298.94 141.989 300.057 142.376C301.196 142.786 302.575 142.991 304.192 142.991Z" fill="white"/>
<path d="M44.2285 49.1592V44.6816C44.2285 39.418 44.1146 33.2314 43.8867 26.1221C43.8411 24.9144 41.346 24.1055 36.4014 23.6953C36.0824 22.8978 35.9229 22.1686 35.9229 21.5078C35.9229 21.0977 36.0824 20.4027 36.4014 19.4229C39.8649 19.5596 43.3398 19.6279 46.8262 19.6279C50.3353 19.6279 53.9355 19.5596 57.627 19.4229C57.946 20.4027 58.1055 21.0977 58.1055 21.5078C58.1055 22.1686 57.946 22.8978 57.627 23.6953C52.9102 24.151 50.529 24.96 50.4834 26.1221C50.1872 30.93 50.0391 37.9596 50.0391 47.2109C50.0391 57.6471 50.1872 66.0895 50.4834 72.5381L47.6807 72.6064L15.2441 32.9238C15.2441 33.334 15.2327 34.0859 15.21 35.1797C15.1872 36.2507 15.1758 37.0824 15.1758 37.6748C15.1758 48.6807 15.3239 58.0573 15.6201 65.8047C15.6657 67.0352 18.1608 67.8555 23.1055 68.2656C23.4245 69.0632 23.584 69.7923 23.584 70.4531C23.584 70.9544 23.4245 71.695 23.1055 72.6748C19.5964 72.5381 16.1214 72.4697 12.6807 72.4697C9.17155 72.4697 5.57129 72.5381 1.87988 72.6748C1.56087 71.695 1.40137 70.9544 1.40137 70.4531C1.40137 69.7923 1.56087 69.0632 1.87988 68.2656C6.59668 67.8099 8.97786 66.9896 9.02344 65.8047C9.29688 61.0195 9.43359 54.0013 9.43359 44.75C9.43359 37.6634 9.34245 31.3402 9.16016 25.7803C7.67904 24.6182 5.42318 23.9232 2.39258 23.6953C2.05078 23.0801 1.87988 22.3737 1.87988 21.5762C1.87988 20.7331 2.09635 19.9697 2.5293 19.2861C7.29167 19.514 13.3073 19.6279 20.5762 19.6279L44.2285 49.1592ZM48.6377 47.2109C48.6377 40.3066 48.7858 33.277 49.082 26.1221C49.1732 24.0713 51.6911 22.818 56.6357 22.3623C56.818 21.9749 56.818 21.4395 56.6357 20.7559C52.3291 20.8926 49.2757 20.9609 47.4756 20.9609C44.6273 20.9609 41.3802 20.8926 37.7344 20.7559C37.5521 21.4395 37.5521 21.9749 37.7344 22.3623C42.7246 22.818 45.2425 24.0713 45.2881 26.1221C45.516 33.2314 45.6299 39.418 45.6299 44.6816C45.6299 47.7578 45.5843 51.9049 45.4932 57.123L16.0303 21.0293C10.9033 21.0293 6.65365 20.9382 3.28125 20.7559C3.09896 21.3027 3.09896 21.8382 3.28125 22.3623C6.2207 22.5446 8.64746 23.4788 10.5615 25.165C10.7438 30.7021 10.835 37.2305 10.835 44.75C10.835 51.6543 10.6982 58.6725 10.4248 65.8047C10.3337 67.8783 7.81576 69.1429 2.87109 69.5986C2.6888 69.9632 2.6888 70.4987 2.87109 71.2051C7.15495 71.0684 10.2083 71 12.0312 71C14.8796 71 18.1266 71.0684 21.7725 71.2051C21.9548 70.4987 21.9548 69.9632 21.7725 69.5986C16.7822 69.1429 14.2643 67.8783 14.2188 65.8047C13.9909 58.7181 13.877 52.543 13.877 47.2793C13.877 41.2637 13.9453 35.305 14.082 29.4033H14.4238L48.3643 71.2051L49.0137 71.1367C48.763 65.7819 48.6377 57.8066 48.6377 47.2109ZM81.1768 42.1523C82.9997 42.1523 84.3213 42.7448 85.1416 43.9297C85.9619 45.0918 86.3721 46.5501 86.3721 48.3047C86.3721 48.9655 86.2581 49.7174 86.0303 50.5605H72.7002C73.4066 47.7122 74.5459 45.6045 76.1182 44.2373C77.7132 42.8473 79.3994 42.1523 81.1768 42.1523ZM72.3584 52.8848H90.9863C91.3509 51.7454 91.5332 50.5719 91.5332 49.3643C91.5332 46.6982 90.7699 44.4652 89.2432 42.665C87.7393 40.8421 85.3353 39.9307 82.0312 39.9307C77.7246 39.9307 74.1016 41.4915 71.1621 44.6133C68.2227 47.735 66.7529 51.6999 66.7529 56.5078C66.7529 61.6348 68.1543 65.4971 70.957 68.0947C73.7598 70.6924 77.0524 71.9912 80.835 71.9912C83.6377 71.9912 86.2354 71.2393 88.6279 69.7354C91.0433 68.2087 92.8092 65.9186 93.9258 62.8652C93.6068 62.5007 93.1624 62.25 92.5928 62.1133C92.5016 62.25 92.2282 62.626 91.7725 63.2412C91.3395 63.8337 91.0205 64.2666 90.8154 64.54C90.6104 64.7907 90.2344 65.1667 89.6875 65.668C89.1634 66.1465 88.6507 66.4997 88.1494 66.7275C87.6709 66.9554 87.0557 67.1833 86.3037 67.4111C85.5518 67.6162 84.7314 67.7188 83.8428 67.7188C80.3337 67.7188 77.5423 66.682 75.4688 64.6084C73.3952 62.512 72.3128 59.6979 72.2217 56.166C72.2217 55.3685 72.2673 54.2747 72.3584 52.8848ZM92.0459 60.5068C93.4814 60.8258 94.6436 61.5436 95.5322 62.6602C94.2334 66.2148 92.2282 68.8923 89.5166 70.6924C86.805 72.4925 83.9111 73.3926 80.835 73.3926C76.6423 73.3926 73.0078 71.9798 69.9316 69.1543C66.8783 66.3288 65.3516 62.1133 65.3516 56.5078C65.3516 51.4264 66.9124 47.1654 70.0342 43.7246C73.1787 40.2611 77.6221 38.5293 83.3643 38.5293C92.0459 38.5293 96.3867 42.141 96.3867 49.3643C96.3867 50.777 96.0563 52.4176 95.3955 54.2861H77.041V56.5078C77.1549 59.265 77.9069 61.5094 79.2969 63.2412C80.6868 64.9502 82.6009 65.9528 85.0391 66.249C86.4746 66.1123 87.6595 65.6224 88.5938 64.7793C89.528 63.9362 90.6787 62.512 92.0459 60.5068ZM84.9707 48.3047C84.9707 45.7982 84.1276 44.2829 82.4414 43.7588C80.4362 44.374 78.9437 46.1742 77.9639 49.1592H84.9023C84.9023 49.068 84.9137 48.9313 84.9365 48.749C84.9593 48.5667 84.9707 48.4186 84.9707 48.3047ZM136.719 40.6826H119.663C119.412 41.2067 119.412 41.7422 119.663 42.2891C121.714 42.6764 123.013 43.7816 123.56 45.6045L124.961 49.2959L118.74 63.0361H118.604L111.597 45.6045C111.232 44.6702 111.426 43.9753 112.178 43.5195C112.952 43.041 114.229 42.6309 116.006 42.2891C116.234 41.7422 116.234 41.2067 116.006 40.6826H99.4971C99.2464 41.2067 99.2464 41.7422 99.4971 42.2891C102.528 42.7676 104.419 43.8727 105.171 45.6045L116.006 71.9912H117.612L126.294 52.8164L133.711 71.9912H135.317L146.802 45.6045C147.645 43.5993 149.399 42.4941 152.065 42.2891C152.293 41.7422 152.293 41.2067 152.065 40.6826H140.444C140.216 41.2067 140.216 41.7422 140.444 42.2891C141.082 42.3346 141.618 42.4258 142.051 42.5625C142.507 42.6764 142.939 42.8473 143.35 43.0752C143.783 43.3031 144.01 43.6221 144.033 44.0322C144.056 44.4196 143.976 44.9437 143.794 45.6045L136.445 63.0361H136.309L130.02 45.6045C130.02 45.2627 129.951 44.9551 129.814 44.6816C129.701 44.4082 129.757 44.1689 129.985 43.9639C130.236 43.736 130.407 43.5537 130.498 43.417C130.589 43.2803 130.84 43.1549 131.25 43.041C131.683 42.9271 132.036 42.8359 132.31 42.7676C132.606 42.6992 133.039 42.6309 133.608 42.5625C134.201 42.4714 134.691 42.4144 135.078 42.3916C135.488 42.3688 136.035 42.3346 136.719 42.2891C136.947 41.7422 136.947 41.2067 136.719 40.6826ZM118.672 39.418H137.71C138.462 40.8763 138.462 42.2549 137.71 43.5537C137.14 43.5993 136.742 43.6449 136.514 43.6904C136.286 43.736 135.944 43.793 135.488 43.8613C135.055 43.9297 134.782 44.0208 134.668 44.1348C134.554 44.2259 134.372 44.3512 134.121 44.5107C133.893 44.6702 133.825 44.8525 133.916 45.0576C134.007 45.2627 134.053 45.5361 134.053 45.8779L137.847 56.0977L142.188 45.8779C142.507 45.126 142.438 44.5905 141.982 44.2715C141.549 43.9297 140.706 43.6904 139.453 43.5537C138.701 42.2549 138.701 40.8763 139.453 39.418H153.022C153.729 40.8307 153.706 42.2093 152.954 43.5537C151.427 43.6449 150.311 43.8955 149.604 44.3057C148.898 44.693 148.385 45.3083 148.066 46.1514L136.24 73.3926H132.754L126.157 56.3711L118.535 73.3926H115.015L103.838 46.1514C103.496 45.3538 102.949 44.7956 102.197 44.4766C101.468 44.1348 100.26 43.8271 98.5742 43.5537C97.9134 42.346 97.8906 40.9674 98.5059 39.418H116.997C117.59 40.9674 117.567 42.346 116.929 43.5537C115.562 43.6449 115.163 44.4196 115.732 45.8779L120.142 56.6445L123.491 49.2959L122.158 45.9463C121.657 44.693 120.518 43.8955 118.74 43.5537C118.079 42.346 118.057 40.9674 118.672 39.418Z" fill="white"/>
</svg>
